<?xml version="1.0" encoding="UTF-8"?>
<svg id="Layer_1" xmlns="http://www.w3.org/2000/svg" xmlns:xlink="http://www.w3.org/1999/xlink" version="1.1" viewBox="0 0 4200 4200">
  <!-- Generator: Adobe Illustrator 29.2.1, SVG Export Plug-In . SVG Version: 2.1.0 Build 116)  -->
  <defs>
    <style>
      .st0 {
        fill: none;
      }

      .st1 {
        clip-path: url(#clippath);
      }
    </style>
    <clipPath id="clippath">
      <rect class="st0" x="85.54" y="1625.96" width="4037.24" height="947.04"/>
    </clipPath>
  </defs>
  <g class="st1">
    <path d="M134.23,2286.81c-3.38-67.75-10.15-135.19-11.39-202.99-2.12-23.82,1.16-47.47,1.6-71.28-2.64-19.41-5.32-38.86-3.91-58.48-2.81-24.19-1.5-48.01.83-72.14-4.44-15.86-5.18-32.22-1.88-48.37,1.6-10.41-3.63-19.67-3.77-30-1.18-6.64,2.16-12.5.13-19.08.1-5.11,3.19-9.65,3.54-14.76-5.69-17.39,12.03-30.6,12.77-7.77-3.5,7.71-1.69,14.71-.07,22.53-1.94,6.16.21,11.42-.09,17.64-1.14,14.49-5.11,28.18-.41,42.6,2.01,12.36.46,24.67-2.06,36.85.84,13.13,4.3,26.06,4.82,39.13-1.12,30.58,2.46,61.03-1.61,91.5,4.61,35.38,4.17,70.77,5.86,106.29,1.7,21.84,1.6,43.74.63,65.61,2.03,33.51,4.08,67.02,6.18,100.52,1.38,8.31-9.97,12.62-11.16,2.2Z"/>
    <path d="M161.11,2373.75c-1.95-50.34-4-100.64-9.38-150.75-3.27-41.33-9.91-82.51-7.03-124-8.21-26.32-7.89-53.29-8.47-80.46-6.34-11.43-6.46-24.68-5.56-37.42-2.35-8.73-2.28-17.23,1.07-25.69-1.43-7.52-1.08-17.15,4.76-22.72,10.12-7.02,16.5,11.47,7.94,16.8-.29,1.21-.49,2.47-.93,3.62-.32.86-.62,1.71-.91,2.57,3.66,7.82,3.75,15.67,2.31,24.04,2.51,12.24,4.73,24.81,1.17,37.06,1.42,16.24,7.09,31.87,7.61,48.23-2.18,24.46,2.67,47.57,6.85,71.52,2.1,48.16,5.33,96.33,4.92,144.7,1.35,30.83,2.84,61.68,4.04,92.51.22,6.67-8.49,7.52-8.41,0Z"/>
    <path d="M160.73,2454.36c-4.46-49.72-8.9-99.44-13.31-149.17-1.62-16.17-2.14-32.42-1.15-48.65-2.92-18.98-6.51-37.87-6.74-57.13-.65-11.57-2.23-23.13-2.77-34.68.62-8.33,1.13-16.68,1.51-25.02-1.86-8.13-3.22-16.34-4.06-24.64-.49-8.04.4-16.08-1.14-24.06-.72-6.55-1.2-13.2-1.23-19.76.44-2.9,1.46-5.71,2.11-8.58-.05-2.45-.11-4.9-.16-7.35-4.11-12.04-2.81-24.79.01-36.98-1.03-4.3-1.97-8.63-2.45-13.02-.65-3.7-.98-7.56.9-10.98-.63-4.99-1.19-10.96,2.4-15,.59-4.59.37-10.02,3.84-13.53,3.8-4.3,9.56-.38,9.78,4.57.36,3.18-.88,6.98-4.01,8.35-.26.5-.52,1-.76,1.52-.1.29-.19.57-.28.86,2.25,4.8,1.22,9.1.61,13.78,1.51,3.4,1.21,6.92.26,10.41-.83,4.52-2.28,8.96-3.3,13.4,1.01,5.85,2.23,11.74,2.77,17.62-.18,3.39-.09,6.8-.34,10.18-1.17,5.24-2.11,10.37-1.48,15.77,3.47,8.33,3.17,17.36,3.34,26.23-.7,8.54.85,16.89,1.36,25.37.02,8.44-.46,16.85-1.46,25.23,1.23,8.57,2.86,17.09,4.28,25.63.07,10.91.53,21.82,1.54,32.7,1.55,12.73,2.44,25.45,2.09,38.27.02,6.67-.02,13.34-.03,20,1.27,7.08,2.98,14.08,3.84,21.22,2.6,24.69,4.62,49.44,6.89,74.16,3.03,33.64,6.07,67.28,9.12,100.93,1.09,9.26-9.82,13.76-11.96,2.35Z"/>
    <path d="M177.13,2496.22c-6.39-61.57-17.35-122.42-26.99-183.44-2.13-16.42-.11-33.2-4.44-49.27-1.21-12.18-9.2-23.89-7.33-36.13-1.49-3.74-1.99-8.1-.17-11.85-10.09-22.95,14.73-29.93,12.01-2.99,2.95,2.88,3.42,7.23,3.11,11.11,4.67,8.79,1.43,19.73,2.35,29.35-.09,20.12,6.67,38.96,10.11,58.6,5.49,41.81,6.08,84.12,12.68,125.84,2.37,19.05,4.69,38.09,7.01,57.14,1.23,6.37-7.64,9.05-8.32,1.64Z"/>
    <path d="M446.21,2475.59c-42.45-3.63-84.99-6.43-127.17-12.62-6.24.39-12.52,1.6-18.76,1.18-8.07-1.23-16.27-.85-24.36-1.37-5.13-1.17-10.28-2.25-15.48-3.05-3.72.49-7.42,1.12-11.18,1.31-3.79.49-7.53-.03-11.3-.45-3.54.46-7.03,1.45-10.6.67-3.67-.27-7.25-1.13-10.83-1.91-7.57,1.6-15.24,4.68-22.89,1.81-2.89.1-5.07,1.67-7.4,3.14-1.61.47-3.36.14-5.02.33-1.62.35-3.36.41-4.65,1.55-1.09.8-2.61.45-3.68-.21-.24,2.05-1.85,4.45-4.17,3.54-4.11-1.78-2.27-9.39,2.02-9.46.99-.87,1.41-2.33,2.6-2.99.94-.57,2-.48,3.05-.42,1.19-.38,2.38-.72,3.58-1.05,1.68-.53,3.36-1.42,5.12-1.58,1.6.14,3.08.96,4.61,1.43,4.08.5,7.41-2.05,11.38-2.55,5.08-.45,10.29.77,15.35,1.34,7.01-2.23,14.28-3.71,21.54-1.9,7.66-1.22,15.29-.06,22.66,2.13,5.55-.25,11.09-.8,16.6-1.4,2.83.25,5.67.64,8.5.9,5.53.43,11.07.6,16.62.54,5.68.88,11.31,2.07,16.93,3.27,42.42.17,84.67,3.97,126.94,7.14,5.41.44,5.42,10.36,0,10.7Z"/>
    <path d="M433.92,2474.96c-9.25-.46-18.49-.89-27.73-.11-6.46-.55-12.79-2.49-19.18-3.72-5.13.86-10.36,1.59-15.55,1.43-3.96-.71-8.65-1.63-12.26-2.86-3.11-1.13-6-.71-9.19-.95-2.16.68-4.31,2.3-6.64,1.5-4.54-1.22-8.93-2.2-13.62-1.87-1.78-.51-3.26-1.79-4.92-2.62-3.29,1.9-7.77-.68-7.53-4.56-.05-4.87,4.9-6.33,8.21-3.19,1.63-.36,3.23-1.16,4.89-1.28,1.79.16,3.5,1.02,5.26,1.44,2.52.09,5.05.17,7.57.24,2.93-.46,4.97,1.66,7.22,3.15,2.22.27,4.45.54,6.67.81,6.24-.74,12.71-1.99,18.9-.42,3.86.64,7.54,1.93,11.26,3.15,2.34-.14,4.69-.29,7.03-.43,3.66-.48,7.32-1.24,10.98-1.62,3.59.31,7.18.75,10.77,1.08,10.86.38,21.75-.57,32.37,2.23,3.52-.02,7.04-.03,10.56-.05,4.02-.78,7.96-2.04,12.03-2.46,44.79-1.67,89.57-5.24,134.37-7.78,5.7.38,5.74,10.87,0,11.32-43.06,2.69-86.31,5.19-129.31,6.87-5.72.46-11.32-.63-16.96-1.44-3.55.26-7.09.52-10.64.78-4.85.49-9.68,1.91-14.56,1.34Z"/>
    <path d="M544.57,2477.49c-26.31-1.73-52.71-2.69-78.92-5.51-21.01-2.51-41.47-9.36-62.77-7.48-15.49.83-28.54-8.16-43.37-10.35-9.69,1.55-18.62-1.83-26.99-6.52-6.72.31-11.16-4.56-15.87-8.66-15.24.92-7.55-25.72,1.36-11.46.25.22.5.44.71.69.37.42.65.89.91,1.38,10.19.98,18.3,6.53,28.49,8.02,6.84,1.43,12.15,7.72,19.24,8.62,19.43.48,38.32,5.39,57.17,9.63,40.04-.16,80.03,2.6,120.05,4.93,8.45.63,8.44,16.17,0,16.71Z"/>
    <path d="M329.18,2481.08c-6.98-1.19-14.01-1.87-21.07-2.37-6.01,1.14-11.96,2.64-18.12,2.12-9.68-.13-19.2-1.83-28.89-.81-6.57-.65-12.9-3.55-19.28-5.3-7.44.55-15.17,1.95-22.47-.09-6.56-1.12-12.37-4.56-18.93-5.64-3.12.98-6.2,1.85-9.46,1.04-3.29,0-5.99-1.81-8.74-3.39-2.26-.28-4.74.1-6.8-.98-1.44-.88-2.97-2.1-3.62-3.7-5.94.41-6.59-7.81-2.88-10.96,2.42-1.88,6.35-1.3,7.5,1.73,2.89-.23,5.04,1.88,7.52,3.03,1.91.04,3.81-.25,5.71-.07,2.32.78,4.84,1.29,7.05,2.29,2.92,2.51,5.7,3.87,9.59,3.94,5.27-.29,10.52-.26,15.77.25,7.09.63,13.48,3.66,20.24,5.66,5.02-.5,10.04-1.05,15.06-1.64,5-.83,10.01,1.29,15,1.79,12.05-.03,24.1-.08,35.78,3.16,3.77-.29,7.54-.61,11.32-.97,5.77-.94,11.41-2.77,17.31-2.26,10.09.32,20.15-.72,30.1-2.17,7.7.03,15.38.33,23.06.97,8.96-2.43,18.75-5.44,27.9-6.12,56.46-5.51,112.27-14.15,168.33-22.55,5.66-.58,6.4,9.6,1.21,10.69-49.56,6.73-98.99,14.3-148.46,21.55-8.29,1.2-16.51,2.83-24.76,4.2-5.72.17-11.49.19-17.21-.2-6.2-1.13-11.89,1.07-17.79,2.69-3.8.9-7.68,1.48-11.5,2.28-7.99.27-16.01.42-24,1.12-4.79.22-9.7,1.56-14.44.72Z"/>
    <path d="M657.67,2464.51c-70.82-1.12-141.36.24-211.87-4.7-12.66-2.19-24.87-7.45-37.59-9.97-22.67,1.73-45.41.84-66.86-7.33-16.8-4.28-33.4,5.53-49.84-1.37-8.31,1.25-18.23,4.32-25.62-.92-.34.03-.69.06-.89.08-.29.03-.58.06-.86.1-9.66,22.33-28.11-17.05,1.41-13.54,10.82-8.36,25.07-.74,37.37-4.42,15.97.72,30.35,10.16,46.85,7.19,20.8-2.47,40.67,4.56,60.46,9.6,34.28-1.77,68.15,2.94,102.16,6.24,29.24,5.33,58.85,6.7,88.52,6.65,18.92.26,37.84.43,56.76.52,5.98.35,5.98,11.52,0,11.86Z"/>
    <path d="M394.36,2462.16c-1.34.16-2.63.32-3.92.79-1.16.92-2.86.78-3.94-.19-2.91-2.01-2.66-7.05.5-8.71,2.11-1.28,4.68.9,7.18.52,1.51-1.7,3.47-2.41,5.66-1.95,3.35.68,6.3-.59,9.46-1.57,4.38.14,8.71,1.71,13.13,1.99,1.83-.68,3.66-1.35,5.49-2.03,2.86-.67,5.66-1.98,8.63-1.95,3.88-.19,7.59.25,11.35,1.16,2.64-.45,5.28-.91,7.92-1.36,4.03-1.61,7.87-3.73,12.27-4.06,4.46-.95,9-.96,13.54-1.12,8.4-2.57,17.14-3.13,25.83-2.05,6.55-1.59,12.95-3.67,19.37-5.7,7.56-1.06,15.13-2.06,22.7-3.02,11.18-3.06,22.72-4,34.3-3.55,12.31-3.37,24.58-6.89,37.44-6.82,8.58-1.18,17.18-1.93,25.84-2.11,6.53-1.69,13.06-3.34,19.62-4.86,3.27-.75,6.5-1.78,9.9-1.34,12.72.41,25.47,1.12,38.19.97,9.04-.53,18.08-1.2,27.14-1.36,25.66-.89,51.32-1.63,76.98-2.2,4.31.23,4.32,8.27,0,8.54-35.32.79-70.69.95-105.96,3.24-13.51,1.77-26.96,4.42-40.46,6-8.28.05-16.56-.05-24.84-.3-11.76,2.66-23.82,3.23-35.64,5.52-10.92,1.85-22.71-1.37-33.23,3.03-5.39,2.12-11.12,3.07-16.72,4.48-3.49.34-7.11.68-10.36,1-11.16,1.72-22.1,5.16-33.51,4.56-3.4.03-6.81.18-10.22.29-2.79,1.01-5.52,2.22-8.34,3.14-5.65,1.55-11.36,2.36-17.22,2.41-5.73,1.68-11.56,2.81-17.51,3.38-5.55-.88-11.02-.96-16.56.08-6.89,3.34-14.51,4.4-22.02,2.8-5.99-1.98-11.62,3.77-17.09,3.85-2.64-.24-5.27-.91-7.88-.21-2.49.63-5.12.79-7.05-1.28Z"/>
    <path d="M722.26,2470.45c-9.38-.65-18.7-1.7-28-3.06-4.63.62-9.28,1.22-13.92,1.74-7.9.75-15.72.26-23.5-1.27-5.67.19-11.34.84-16.91-.53-6-.69-11.58-2.93-17.22-4.98-6.22-.26-12.43-.53-18.65-.03-3.4-.55-6.95-1.24-10.22-2.42-4.4-1.93-8.88-3.6-13.42-5.17-4.57.57-9.08.71-13.56-.57-2.55-.15-4.59-1.52-6.38-3.25-4.59.3-8.84-2.37-11.31-6.12-2.37-.97-5.25-1.06-6.79-3.41-2.63-3-1.78-9.58,2.82-9.94,3.37.04,3.77,4.19,6.31,5.64,2.14-.42,4.21-.27,6.23.53,1.88.19,3.28,1.49,4.78,2.53,1.91-.32,3.78-.51,5.51.46,4.83,1.71,9.19,4.11,13.41,6.99,5.13.9,10.3.81,15.48.87,3.21.63,6.52.6,9.6,1.76,5.38,2.37,11.06,3.75,16.76,5.1,4.17-.29,8.19-1.05,12.35-1.09,7.36-.12,14.51.83,21.68,2.48,6.04-.14,12.06-.51,18.04.58,6.39.58,12.65,2.08,18.99,3.04,7.06-.85,14.09-1.81,21.14-2.68,7.47-1.43,14.98-.73,22.52-.61,9.1-1.01,18.2-2.03,27.33-2.64,9.58.09,19.15.44,28.71-.68,5.82-1.69,11.39-4.37,17.43-5.12,19.49-3.28,39.27-4.6,58.76-7.97,5.03-1.85,10.06-3.72,15.09-5.56,5.47-1.25,11.14-1.83,16.67-2.85,10.92-2.14,22.07-2.14,33.13-3.02,23.57-3.6,47.15-7.19,70.74-10.65,3.7-.54,6.06,2.96,6.43,6.26.46,3.31-1.17,7.71-4.76,8.45-28.44,4.63-57.44,6.58-85.42,13.61-11.04,3.11-22.47,4.1-33.78,5.87-5.68.11-11.38-.55-17.07-.73-6.1.96-12.21,1.86-18.28,2.96-19.34,3.24-38.55,8.98-58.31,6.64-9.67,1.44-19.05,4.15-28.59,6.08-9.26,1.07-18.55,1.43-27.88,1.28-5.31.48-10.62,1.5-15.95,1.5Z"/>
    <path d="M986.05,2468.13c-12.84-.88-25.48-2.8-38.02-5.7-29.34,1.36-58.54,8.53-87.55.21-20.42-6.5-40.67,1.99-61.19,1-6.67.21-12.96-2.47-19.43-3.76-11.61.73-26.21,3.2-36.1-3.71-27.83,9.94-26.54-30.64.64-16.91,10.64-5.63,24.89-1.25,36.3.91,23.79-5.62,45.77,6.79,69.37,6.89,32.89-6.27,65.3-.27,98.03,3,32.41-8.7,65.31-2.34,98.25-5.68,21.65.96,42.84,7.05,64.52,4.08,30.44.2,60.89,2.1,91.32,3.03,3.64.14,5.5,4,5.5,7.24,0,3.03-1.87,7.35-5.5,7.24-27.64-.92-55.28-1.8-82.92-2.66-22.95-3.04-45.23.79-68.09,2.78-21.74.04-43.52-.77-65.13,2.04Z"/>
    <path d="M1098.46,2439.66c-7.5-.84-14.98-.21-22.46-.07-7.86-.97-15.62-2.41-23.31-4.31-9.72.65-19.56,2.17-29.05-.66-6.27-.36-12.82-.18-18.86-2.04-2.27-.99-4.55-2.01-6.81-3.04-4.94-1.4-9.81-2.13-14.95-1.58-7.59.08-14.85-2.23-21.04-6.66-3.71-.66-7.4.13-11.07.12-2.09-.63-3.97-1.95-5.97-2.85-3.29-1.41-6.69-2.4-10.23-2.92-1.63-.32-2.76-1.56-3.41-3.04-11.6.32-8.04-17.53,1.96-8.74,2.97-1.93,5.97,1.18,8.72,2.19,3.05.94,6.13,1.72,9.31,2.03,1.23.18,2.13.38,3.12,1.15,2.22,1.93,5.3,4.03,7.87,5.12,4.69.9,10.12-.87,14.76,1.18,4.84,1.17,9.31,3.23,13.85,5.22,2.62.33,5.23.65,7.85.96,2.79-.24,5.6-.68,8.39-.93,5.79.72,11.55,2.04,17.27,3.24,9.82-.53,19.08,2.8,28.59,4.79,9.01-.71,17.62-2.16,26.58-1.55,9.19,1.53,17.41.3,26.48.46,6.26-.44,12.38.85,18.56,1.69,4.69-.18,9.38-.43,14.06-.72,4.38-.92,8.76-1.88,13.12-2.89,4.28-.69,8.67-.38,13-.68,11.04-.69,21.01-1.94,31.91-2.36,4.72-1.46,9.43-3.01,14.16-4.44,5.34-.74,10.68-1.48,16.01-2.22,7.89-.24,15.84.62,23.71-.32,14.26-.29,27.45-6.76,41.17-9.84,13.68-.1,27.35-.58,40.99-1.51,19.6-4.34,39.61-5.34,59.56-7.05,20.3-1.7,40.62-3.27,60.93-4.75,3.43.01,5.43,3.93,5.33,7.01,0,3.21-1.8,6.79-5.33,7.01-30.03,1.83-60.04,4.01-90.03,6.27-9.87.73-19.76,1.32-29.64,1.92-13.7,2.41-27.31,5.19-40.84,8.45-10.91.06-21.85-.44-32.77-.2-5.22,1.08-10.44,2.17-15.3,3.14-5.37,1.54-10.73,3.27-16.09,4.77-5.34.74-10.67,1.5-16.01,2.23-5.06-.01-10.15-.81-15.22-1.11-14.86,2.51-29.9,4.23-44.85,5.83-5.97-.3-11.93-1.41-17.91-.92-6.43,0-12.72.59-18.99,2.08-5.64.96-11.43.58-17.13.51Z"/>
    <path d="M1230.14,2547.22c-21.31-1.85-41.16-9.53-61.72-14.8-10.26.12-20.53-.1-30.65-1.94-10.08-.65-18.33-7.03-27-11.6-14.28-5.31-33.15-8.44-42.89-20.56-29.42-.58-19.05-41.49,4.5-17.02,21.1-.36,38.37,20.35,60.39,20.36,22.13,7.91,41.59,22.81,66.27,19.9,28.48-.66,56.21,5.5,84.39,8.67,57.68-11.32,116.54-13.12,174.96-19.35,11.52.7,12.21,21.32,1.34,23.79-44.57,4.18-89.12,9.7-133.78,12.33-32.16-4.78-63.62-1.93-95.81.22Z"/>
    <path d="M1335.35,2542.39c-9.92-1.05-19.74-2.78-29.47-4.97-6.16.25-12.34.3-18.5.66-18.66,1.95-36.95-2.88-54.97-7.17-2.47,2.77-7.37,5.15-10.46,2-3.2,1.65-5.61-1.31-7.89-3.05-5.06,2.26-13.53.35-13.22-6.45,0-2.92,1.68-6.4,4.96-6.52,3.14-.31,6.53.17,9.03,2.21,2.72-1.32,5.29-3.31,8.2-1.09,3.7-2.41,7.93,1.27,9.93,4.31,11.78-.07,23.64-.89,35.37.51,12.78.95,25.06,5.05,37.82,6.35,10.44-1.14,20.92-2.78,31.41-3.03,7.13.66,14.24,1.43,21.41,1.25,8,.36,15.92-.87,23.9-1.1,10.32.23,20.6.74,30.9,1.46,10.89-1.75,21.64-4.25,32.45-6.32,5.76-.4,11.52-.79,17.27-1.19,5.62-.39,11.26-.56,16.88-.84,8.39-1.13,16.71-2.87,25.2-2.67,10.06-.54,20.08.08,30.11.82,27.05-.45,54.12-2.39,81.19-3,4.09.22,4.11,7.85,0,8.12-26.14.91-52.27,2.11-78.4,3.3-9.42,1.72-18.77,3.94-28.34,4.63-9.65,1.31-19.36,1.52-29.09,1.8-10.9,1.42-21.8,2.79-32.74,3.84-11.34.24-22.73-.81-34.1-.5-8.86,2.04-17.73,4.03-26.79,4.94-6.48,1.14-13.06.42-19.61.34-10.83-.18-21.63.96-32.41,1.36Z"/>
    <path d="M1495.46,2571.24c-23.79.38-45.15-11-68.12-15.19-12.52.42-24.95-.89-37.07-4.07-12.9-7.76-27.45-10.41-41.21-16.04-7.45-3.15-12.63-10.47-21.26-10.63-5.19-1.31-11.89-1.68-14.75-6.84-3.32-4.99-2.09-14.07,4.42-15.75,12.47.08,17.08,13.13,33.64,11.06,9.21,2.62,18.02,6.46,26.55,10.82,18.42,1.29,35.53,9.74,51.41,18.2,34.56,7.11,70.48,3.37,105.14,11.79,35.77-2.28,71.44-6.09,106.94-10.94,3.13-.47,5.12,2.52,5.43,5.29,4.45,12.53-48.89,11.08-58.15,14-31.08,2.4-62,5.72-92.98,8.3Z"/>
    <path d="M1505.32,2572.75c-7.49-1.14-14.91-2.57-22.29-4.28-6.85.42-13.72.56-20.57.13-5.34-.11-10.31-2.67-15.6-3.15-11.12-.66-21.77-3.98-31.54-9.27-5.91-1.35-12.17-.73-17.92-2.6-6.73-1.78-12.54-5.77-18.71-8.89-3.6-.27-7.2-.56-10.79-.99-1.77-.03-3.1-1.18-4.31-2.35-1.41-1.79-3.65-1.72-5.67-2.35-2.96-1.44-5.73-3.21-7.81-5.81-11.79.38-6.45-18.52,2.18-7.52,3.13-.18,6.02,1.01,8.83,2.28,1.11.82,2.27,1.66,3.39,2.46,2,.24,4.3-.2,5.93,1.26,3.12,2.37,6.34,4.63,9.55,6.88,7.93,1.7,16.29,2.05,23.7,5.57,4.02,2.3,8.24,4.14,12.58,5.72,5.02.35,10.11-.02,15.04,1.18,6.69.77,13.06,3.33,19.52,4.75,11.28.56,21.66,3.83,32.54,6.46,7.55-.37,15.11-.91,22.64-1.62,5.69.4,11.4.9,17.1.6,6.12.04,12.15-1.03,18.18-1.81,8.23-.51,16.44-.93,24.7-.94,32.5-7.29,64.96-14.76,97.31-22.72,4.6-.54,5.18,7.73.99,8.69-16.07,3.82-32.16,7.52-48.27,11.16-16.36,3.69-32.6,8.18-49.36,9.63-9.39,3.11-18.99,6.16-28.93,6.59-10.81.14-21.6.8-32.39.95Z"/>
    <path d="M1597.07,2487.67c-29.16-.74-57.23-4.76-85.65-10.55-18.22,2.11-36.09-.98-53.1-7.62-13.23-4.36-26.99,3.87-39.41-4.08-7.6-.96-17.08,2.11-22.85-4.13-4.14-.54-6.31,2.96-9.93,3.58-12.1-3.92-5.87-21.79,10.61-15.57,8.71-6.66,19.34,2.73,28.94.39,12.01-.76,21.18,9.67,33.52,8.89,25.09-4.15,47.07,10.11,71.61,9.01,17.6-3.07,34.96,1.02,52.46,3.08,22.2-3.16,43.64,5.11,65.68,3.18,39.24-3.39,78.58-5.27,117.92-7.14,1.61-.09,3.18.9,4.21,2.07,4,4.43,2.54,14.19-4.21,14.79-22.05,1.14-44.11,2.03-66.17,2.91-34.76-.8-69.07-1.8-103.62,1.21Z"/>
    <path d="M1671.62,2473.14c-8.81-1.32-17.68-2.11-26.57-2.81-6.66.8-13.31,2.28-20.04,1.97-7.29.27-14.44-.56-21.56-2.08-4.35.01-8.74.57-13.06,0-7.41-1.01-14.43-3.22-21.22-6.32-9.11-1.28-18.73-.03-27.38-2.25-5.75-1.27-10.81-4.64-16.21-6.95-4.8.59-9.57.35-14.32-.54-2.66-.79-4.7-2.97-7.01-4.46-3.98.43-6.56-3.1-8.3-6.19-5.08.46-6.42-6.27-3.93-9.67,1.85-4.21,7.83-3.13,8.61,1.28,2.58.23,5.06.85,6.59,3.14,2.46.5,5.1.14,7.38,1.28,4.22,2.33,8.28,4.83,12.17,7.68,6.73.65,13.54-.17,20.12,1.68,7.66,2.42,15.08,5.63,23.02,7.17,1.06-.1,2.12-.2,2.66-.25,10.59-1.63,21.23-.51,31.54,2.22,4.33.11,8.69-.41,13,.07,9.44.76,18.71,2.24,27.99,4.16,4.79-.29,9.56-.64,14.34-1.03,15.57-3.53,31.48-2.38,47.3-3.68,17.2-3.34,34.65-3.13,52.1-3.25,43.57-11.37,88.67-14.5,133.18-20.37,9.18-.91,10.31,15.41,1.96,17.28-44.84,3.89-89.49,11.28-134.57,11.37-17.25,3.89-34.33,8.79-52.16,8.56-11.65.78-24.06,2.83-35.63,2.02Z"/>
    <path d="M1778.68,2481.42c-20.82.11-40.68-6.71-61.48-5.59-11.39,2.47-22.76,4.14-34.43,3.14-7.46.56-14.14-3.12-21.01-5.48-9.82-.59-19.59-1.5-29.36-2.72-10.14-3.56-19.19-11.89-30.56-9.61-5.93-1.32-13.45-.46-17.46-5.84-4.8-5.38-3.87-16.33,3.15-19.36,8.32-2.43,17.46,3.59,24.77,7.35,7.74,1.62,15.5-.41,23.23-.14,9.42,2.47,18.84,4.95,28.3,7.29,28.97-5.98,55.42,16.25,84.33,8.26,43.34-10.08,88.77,3.7,131.06-10.45,31.99-11.52,66.26-8.79,99.56-12.5,25.05-2.42,50.12-4.59,75.19-6.72,5.39,0,8.48,6.18,8.35,10.99.83,12.37-13.65,11.53-21.56,12.26-23.1,2.24-46.19,4.55-69.28,6.81-37.79,6.45-75.19,13-113.76,9.39-26.13,5.5-52.14,13.21-79.05,12.93Z"/>
    <path d="M2252.62,2489.16c-43.44-2.46-86.84-3.14-130.2-2.13-14.07-.15-27.81-2.53-41.58-5.25-20.37-1.9-39.88,3.68-60.06,4.64-34.29,2.77-66.97-12.74-101.47-6.42-12.19,2.09-23.46-3.23-34.95-6.52-17.71-1.06-35.13-5.13-50.24-14.69-8.96-1.18-21.55.75-27.28-7.47-3.84-5.6-2.42-14.88,3.94-17.94,8.78-2.59,18.07,5.52,25.94,9.03,17.07-1.29,33.98,3.3,50.03,8.15,9.56,1.11,19.81-1.14,28.9,2.36,29.92,14.11,61.3,9.78,93.05,7.85,24.13,1.51,47.77,7.37,72.02,5.12,16.49-4.15,33.13-5.83,50.12-5.82,40.51,2.91,81.18,4.15,121.78,6.16,11.59.88,11.6,22.18,0,22.94Z"/>
    <path d="M2120.96,2490.65c-16.3-4.77-33.41,2.63-49.45-5.37-8.19,3.05-22.05,4.43-21.87-7.89-.05-12.65,13.82-10.67,22.04-7.19,16.23-7.31,32.91.78,49.28-3.2,12.59-.95,24.86.63,36.87,4.52,24.86,2.22,48.76-8.21,73.72-5.86,24.25,4.31,47.19-.33,70.36-7.48,18.7-4.62,38.39-3.57,57.5-5.72,33.28-8.13,67.31-5.46,101.06-2.76,20.11.28,40.23.64,60.3,1.9,6.12.44,6.14,11.82,0,12.14-41.08-2.88-81.74-.53-122.26,6.35-32.15.54-63.52,8.16-95.36,10.22-32.01-3.6-62.35,5.11-93.81,8.38-17.4.73-34.09-4.81-51.47-2.86-12.01,4.01-24.27,5.65-36.92,4.82Z"/>
    <path d="M2659.01,2450.98c-41.78-1.05-83.04-7.1-124.78-7.83-16.01,2.6-32.12,4.49-48.29,5.75-21.66-3.97-43.22-5.19-65.28-5.35-11.7-.3-21.74-7.82-33.61-8.39-7.33,2-14.65,1.2-22.09,1.08-16-1.03-12.8-30.45,3.61-24.81,6.92.86,13.4,2.71,19.63,5.84,11.07,1.61,21.62-3.33,32.46-2.08,20.07,2.76,40.02,5.59,60.25,2.85,18.03.43,35.9,5.3,53.59,8.69,42,.8,83.86-2.41,125.72,2.98,9.7,2.24,9.13,20.63-1.2,21.28Z"/>
    <path d="M2688.14,2457.69c-24.99-.03-48.89-10.68-73.82-6.67-16.75,5.29-33.43.71-50.05-2.93-11.28,1.77-21.35.15-31.43-5.11-11.6-6.38-36.29,5.21-35.25-15.52,2.11-15.43,18.49-6.84,27.62-3.56,8.36.63,16.6-1.08,24.86-1.27,15.29,5.43,31.26,3.2,47.17,4.22,29.09,14.59,59.97,4.78,90.9,5.69,18.86.44,37.63,2.86,56.33,5.23,29.65-2.77,58.32-11.08,88.29-10.27,21.96-.36,43.94-.13,65.87-1.63,17.71-.9,35.42-1.63,53.14-2.16,6.39.09,10,7.25,9.86,12.98,0,5.69-3.33,12.89-9.86,12.98-21.17.31-42.33.82-63.5,1.3-30.62.3-61.17,6.05-91.78,5.2-17.28-1.62-34.57-3.2-51.87-4.73-18.69,2.68-37.6,6.53-56.49,6.26Z"/>
    <path d="M3059.81,2481.76c-26.91-1.62-53.56-5.44-80.01-10.57-17.72,1.35-35.44,2.65-53.17,3.81-15.02-2.78-29.89-6.56-45.09-8.52-18.8,1.44-35.73-6.26-53.06-12.5-37.98,11.22-32.19-43.17,1.91-18.15,18.1-.25,36.26-1.65,53.22,5.82,14.91,1.33,29.87,1.36,44.8,1.82,29.12,10.33,59.13,14.67,89.85,10.59,60.72-5.26,120.81,9.3,181.68,6.36,4.42.04,6.67,4.94,6.67,8.78s-2.26,8.78-6.67,8.78c-17.45,0-34.88-.15-52.33-.38-29.26-.34-58.51,4.78-87.8,4.17Z"/>
    <path d="M3460.03,2460.19c-42.23-2-84.99-3.23-126.67-10.44-27.09-4.84-52.3-17.92-80.26-16.1-12.19-.54-24.47,1.06-36.61.62-17.43-4.36-35.24-7.86-53.24-5.48-18.08-1.79-31.56-8.66-50.15-1.33-18.82-.25-13.38-29.26,4.52-23.46,15.16,4.51,29.02-2,43.99-3.28,18.67,3.9,37.62,4.02,56.6,3.02,29.74,8.47,59.36,17.45,90.66,16.38,32.68.86,64.25,8.96,96.58,12.66,18.18,1.49,36.35,3.08,54.58,3.56,6,.16,9.06,6.64,9.06,11.92,0,5.11-3.08,11.98-9.06,11.92Z"/>
    <path d="M3550.61,2437.42c-36.7.14-69.68-18.1-105.01-25.25-26.68,4.28-51.73-7.01-78.13-4.79-20.65-8.54-21.49-.34-37.06-2.84-6.25-3.01-6.62-13.27-.92-17.02,5.56-3.23,13.25-.84,19.14.87,11.6-2.86,22.83-5.45,34.57-1.77,22.32-.32,43.85,1.96,63.91,12.59,26.07,5.97,52.88,6.63,79.22,11.24,31.58,8.09,67.72,10.52,95.12-9.31,28.8,21.7-57.42,36.4-70.85,36.29Z"/>
    <path d="M3708.04,2390.13c-18.61.73-36.32-5.76-54.92-4.98-21.03.39-40.95-4.93-61.2-9.24-11.34.43-25.21,7.14-35.4,1.2-5.21-4.43-5.08-14.04,0-18.52,5.68-4.96,14.5-1.71,21.41-1.64,13.85,3.86,27.3,1.07,41.03-1.09,42.17,4.53,84.04,8,126.61,6.38,10.19.5,12.63,15.11,7.69,22.22-10.31,9.79-31.56,3.98-45.22,5.67Z"/>
    <path d="M318.78,1779.7c-13.66-.24-27.17-1.81-40.49-4.84-19.15,2.94-38.74,5.71-57.74.59-11.71-2.96-22.85-7.5-35.05-8.39-14.74,2.31-29.91.16-42.99-7.22-11.36-.69-22.59-3.72-31.05-11.95-6.87-1.8-16.05-2.64-19.29-9.9-6.39-11.07,9.95-24.8,14.4-9.06,8.06,6.7,18.63,3.13,27.93,6.98,7.46,4.59,14.97,4.85,23.38,5.89,10.6,1.55,19.94,5.78,29.2,11,15.67,4.86,31.79,1.67,47.89,2.57,14.59.92,28.93,5.24,43.39,7.52,21.08-4.35,42.07-8.95,63.7-7.28,23.36-5.41,47.19-6.79,71.09-7.3,52.53-14.87,105.31-28.3,158.93-39.19,11.69-1.33,13.19,19.69,2.52,22.1-53.01,12.68-105.89,24.2-160.05,30.01-30.72,12.36-63.74,12.63-95.78,18.47Z"/>
    <path d="M286.68,1736.85c-2.65-3.93-.69-10.53,4.42-11.04,2.62-.12,5.15.51,7.69-.47,1.24-.84,2.38-1.92,3.76-2.52,1.92-.73,3.99.11,5.95.28,3.3.05,6.49-.73,9.71-1.31,2.74-.97,5.29-.12,7.91.79,5.35,1.83,11.42,2.52,16.83.64,4.75-1.46,9.82-2.2,14.76-2.37,6.81,1.36,13.71,1.96,20.62,2.62,12.51-3.44,25.34-5.67,38.27-3.58,6.56-.73,13.07-1.72,19.68-1.26,7.26.02,14.46.87,21.69,1.37,10.75-2,21.51-4.21,32.29-5.93,5.3-.05,10.61-.09,15.92-.15,11.1-1.37,22.2-2.69,33.31-3.79,10.81.35,20.91.15,31.42-1.31,6.5-.89,12.71-3.27,19.09-4.77,9.01-1.29,18.1-2.44,27.13-3.72,20.43-2.79,40.86-5.6,61.28-8.4,3.34-.46,5.46,2.65,5.8,5.64.42,2.99-1.06,6.95-4.29,7.62-29.72,4.11-59.45,8.29-89.17,12.27-5.66-.17-11.32-.33-16.99-.5-5.56.74-11.12,1.49-16.69,2.24-8.23,1.94-16.33,4.56-24.8,5.26-12.14,2.11-24.53.91-36.64,3.34-4.05.87-8.14.75-12.26.56-8.36-.22-16.71-.51-25.06-.81-13.54,3.76-27.41,5.69-41.46,4.36-12.72,2.98-25.66,1.64-38.35-.91-3.28.55-6.55,1.11-9.82,1.66-4.71.53-9.25,2.85-14.02,2.38-5.33-.07-10.53-1-15.71-2.23-4.01.51-8.11.59-11.81,2.38-1.67.56-3.26,1.4-4.97,1.82-4.42.15-8.8-1.41-13.24-.69-1.86.34-3.69,1.26-5.59.99-2.24-.69-3.95-2.48-6.47-1.82-3.33,1.86-7.09,5.99-10.19,1.34Z"/>
    <path d="M776.06,1716.31c-10.36.28-20.48-1.33-30.57-3.53-17.61-.15-34.95,4.15-52.53,2.29-16.28-2.55-31.3-10.16-48.02-8.92-13.09,4.31-25.14-2.05-37.97-4.39-15.08,2.54-19.09-7.18-29.7-4.61-8.85,6.04-16.35,4.36-15.03-7.92,2.35-12.73,16.3-5.92,24.92-6.54,3.54-.99,7.05-3.26,10.79-1.89,11.54,3.65,23.59,4.27,35.58,5.1,8.89,4.47,18.04,7.82,27.9,9.68,22.62-1.82,45.23-.36,67.31,4.98,16.84,2.77,32.7-3.48,49.33-5.13,55-2.27,109.17-16,163.44-25.61,3.96-.77,6.54,3.33,6.93,6.74.39,3.53-1.17,8.33-5.12,9.11-16.71,3.27-33.4,6.55-50.11,9.77-39.03,7.36-77.72,16.91-117.14,20.86Z"/>
    <path d="M751.89,1710.66c-4.75-1.86-4.93-8.99-1.53-12.15,2.31-2.63,5.72-1.14,8.63-2.11,1.1-.82,2.09-1.85,3.37-2.39,2.8-.78,5.86.46,8.76,0,4.45.47,8.53-1.41,12.85-1.89,5.46,1.12,10.79,3.24,16.35,4.16,8.87-2.76,18.21-3.83,27.45-2.81,4.62.1,9.08,1.63,13.62,2.41,3.38.17,6.76.34,10.15.52,4.87-1.1,9.64-2.85,14.68-2.88,6.97-.86,13.89.15,20.83.77,6.04.16,12.1-1.32,18.16-1.05,5.9.34,11.88-.02,17.68,1.23,5.67,1.12,11.24,1.89,16.97.74,8.15-.59,16.1-2.75,24.15-3.89,11.16-.27,22.32-.56,33.46-1.27,17.3-2.39,34.75-2.51,52.16-1.33,16.96-2.2,34.02-3.44,51.06-4.9,17.74-1.5,35.47-2.98,53.21-4.48,2.45,0,3.9,2.84,3.83,5.04,0,2.34-1.3,4.83-3.83,5.03-17.34,1.42-34.68,2.84-52.02,4.25-17.27,1.38-34.52,3.04-51.84,3.56-16.47,3.65-33.1,6.88-50.03,6.38-12.83.21-25.61,2.46-38.4,2.66-9.68-.58-19.37-1.19-29.02-2.14-7.21,1.32-14.35,3.02-21.71,3.15-7.55.83-15.07.08-22.62-.35-4.95.56-9.88,1.2-14.83,1.72-7.48-.31-14.76-1.42-21.89-3.71-6.98-.07-13.79.76-20.59,2.34-7.71.86-15.43.37-23.08-.9-2.52-.67-5.03-1.34-7.54-2.01-2.44.55-4.88,1.11-7.32,1.68-4.06,1.06-7.98,3.67-12.26,2.22-4.96-1.32-9.99-.46-14.96.48-2.44.75-4.64-.45-6.45-2.06-.43,0-.85.02-1.28.04-.71,2.56-3.43,5.18-6.17,3.94Z"/>
    <path d="M1165.29,1726.47c-8.97-1.19-16.72-.5-25.44-.71-8.26-.58-16.25-2.25-24.14-4.73-8.88-.96-17.79-.53-26.67-.95-5.79-1.04-11.55-2.21-17.32-3.35-6.37-1.42-12.83-2.29-19.26-3.41-4.62-1.59-8.88-4.32-13.5-5.94-6.04-2.01-11.93-4-18.38-3.65-8.95-1.13-16.79-5.77-24.32-10.49-4.94-.51-9.87-1.08-14.8-1.7-2.48-.05-4.1-2.07-5.95-3.45-2.79-.66-5.55-1.42-8.3-2.25-2.55-1.29-3.72-4.37-6.86-4.69-4.34,1.69-8.62-3.09-7.36-7.32.96-4.84,6.69-4.87,9.13-1.16.87.35,1.74.71,2.6,1.07,1.31-.17,2.58-.44,3.9-.55,3.26.6,6.17,2.65,9.19,3.99,2.3,0,4.74-.36,6.64,1.21,4.44,2.68,8.81,5.45,13.18,8.24,9.54,1.03,19.28,2.33,27.54,7.57,4.71,3.33,10.56,3.69,16.02,5.07,4.47.44,9.08.14,13.49.89,12,3.93,24.21,6.16,36.69,7.81,5.64,1.58,10.63,3.61,16.31,4.36,5.57,1.34,12.2,1.34,17.53.52,4.77-.64,9.57-.1,14.37-.16,8.58.65,17.03,2.2,25.68,1.17,11.36-.57,22.69.34,33.93,1.91,5.79-.75,11.65-1.07,17.38-2.18,5.89-.89,11.69-2.63,17.66-2.67,30.88-1.11,61.73-2.82,92.57-4.99,14.57-.98,29.15-1.89,43.72-2.73,1.06-.06,2.09.6,2.76,1.36,2.64,2.92,1.67,9.33-2.76,9.72-46.89,2.16-92.63,5.18-139.3,10.24-10.61-.49-21.23-.85-31.86-1.19-11.2,2.43-22.63,3.96-34.11,3.17Z"/>
    <path d="M1366.28,1725.05c-8.6-2.19-17.25-2.66-26.08-2.39-8.29,1.67-16.58,2.25-25.02,1.83-8.25-1.27-16.47-2.83-24.76-3.89-3.83.79-7.66,1.57-11.49,2.35-2.41,1.03-5.17,1.58-7.28-.36-1.27.76-2.7.75-4.07.32-1.77-.33-3.54-.82-4.74-2.27-5.82,1.42-12.26,3.13-12.7-5.1,0-2.97,2.01-6.95,5.55-6.29,2.44.51,5.01.76,7.32,1.72,1.22-1.29,2.87-1.72,4.57-1.92,1.51-.37,3-.3,4.37.53,2.28-1.86,4.97-.93,7.35.18,3.75,1.01,7.5,2.02,11.25,3.04,13.32-.8,26.76-3.7,40.02-1.09,7.86,2.43,15.72,2.25,23.84,1.91,5.35-.93,10.63-2.63,16.05-2.98,13.55-.09,27.07,1.34,40.58-.1,12.4-.21,24.82.58,37.24.53,17.9-4.97,36.31-6.95,54.83-7.56,15.65-2.63,31.46-5.61,47.38-5.27,14.09,1,27.75-1.02,41.69-2.64,26.58-2.28,53.18-4.55,79.78-6.67,6.53.44,6.58,12.44,0,12.97-34.77,2.29-69.53,4.76-104.27,7.27-9,1.68-17.88,4.21-26.95,5.33-12.16,1.67-24.39,2.49-36.65,2.93-9.11,1.29-18.12,3.64-27.37,3.34-9.41.51-18.72-.52-28.08-1.38-9.97,1.59-19.93,3.21-29.87,4.98-5.88,1.53-11.89.38-17.89.21-11.48-.4-23.21,1.91-34.61.45Z"/>
    <path d="M1667.98,1739.56c-13.1-.78-26.16-2.17-39.03-4.81-27.06,2.19-54.77,4.8-80.44-6.05-14.27-6.31-30.12-1.48-44.68-5.75-12.72-8.89-31.67-7.15-41.17-20.55-30.56-7.19-7.53-40.29-.44-15.98,1.07,1.41,2.62,2.29,4.07,3.25,10.68-1.18,20.59,6.33,30.17,10.01,15.71-.91,28.05,10.07,42.35,14.07,30.52.06,60.19,4.52,90.26,9.31,14.69-1.97,29.18-6.12,43.96-6.96,32.09,1.08,62.66-7.45,94.08-11.98,22.47-3.59,44.81-8.05,67.14-12.45,5.47-1.09,9.05,4.63,9.58,9.33.55,4.86-1.61,11.56-7.09,12.6-20.15,3.85-40.37,7.29-60.54,11.03-35.72,7.11-72.09,10.72-108.22,14.93Z"/>
    <path d="M1860.95,1712.04c-20.67-1.7-41.37-1.48-61.89-3.82-17.82-6.77-36.11-5.86-54.83-6.05-14.18-3.96-27.61-9.11-42.47-6.09-4.53.55-8.54-1.17-12.62-2.91-6.33,1.15-12.67.07-18.34-2.97-17.02,10.14-15.69-18.16.35-9.99,9.07-4.57,17.88,1.35,27.15-.44,9.22,1.92,17.2,7.3,26.83,7.21,15.3-2.08,30.06,1.43,44.62,5.84,31.5.87,62.92,2.28,94.51,4.39,42.58,5.19,85.91-1.94,128.77-2.51,3.11-.17,4.71,3.66,4.71,6.21,0,2.79-1.59,6.05-4.71,6.2-44.03,3.39-88.35.73-132.07,4.94Z"/>
    <path d="M1836.96,1689.95c-12.15-2.82-24.45-4.43-36.91-3.21-9.35-3.29-17.39-8.47-27.86-6.24-11.13-.52-10.4-22.15,1.18-20.93,14.73,8.28,12.69,4.94,28.04,2.95,17.51,6.79,36.08-1.45,53.13,6.22,25.03,6.64,49.91-6.55,75.47-1.54,31.37,6.84,59.61-8.21,90.64-7.37,35.79-1.83,71.23-6.8,107.32-4.21,49.48-11.89,100.59-12.64,151.22-14.46,12.53.84,12.58,23.9,0,24.83-50.17,2.04-100.4,5.23-150.6,2.26-41.07,8.87-82.7,11.62-124.18,16.33-25.12-.39-49.84-5.51-74.4,3.18-19.42,3.21-38.96-.16-58.13-3.69-11.7,1.08-23.31,6.35-34.92,5.86Z"/>
    <path d="M2148.26,1750.67c-17.57-.96-35.08-2.86-52.35-6.25-18.79-.03-37.39,5.46-56.07,2.9-11.42-.4-21.91-4.66-32.58-8.37-18.8-1.45-38.13-2.41-54.09-13.49-15.07-8.15-48.03,4.1-47.03-21.42,5.68-27.98,39.94,7.6,59.1-.02,15.88-.97,29.94,6.94,44.61,10.04,22.41-1.04,44.33,2.82,65.3,10.61,29.07,8.52,58.51-2.77,87.94-3.48,55.66-1.52,110.77-5.4,165.57-16.3,7.94-.82,8.97,13.43,1.7,15.01-19.28,3.34-38.59,6.43-57.9,9.52-41.89,5.14-81.49,22.58-124.19,21.25Z"/>
    <path d="M2393.43,1723.21c-29.46-4.27-58.42-11.67-88.17-5.81-18.35-1.01-35.88-7.68-54.22-7.52-11.87-.78-22.52-8.1-34.15-10.74-33.81,10.24-28.54-39.2,1.79-16.62,11.65,1.55,24.04-1.82,35.24,1.72,13.48,6.15,28.43,3,42.7,5.72,16.37.22,29.69,11.69,46.29,10.28,33.23-.98,66.5-4.16,99.58,2.08,31.41,4.13,61.82-10.54,93.51-9.54,26.04-1.72,52.05-3.95,78.06-6.05,5.27-.06,8.69,5.59,9.12,10.34.72,5.38-1.88,12.64-7.75,13.78-36.57,3.12-73.25,8.37-109.88,9.38-15.53-1.19-31.06-2.3-46.61-3.36-21.84,1.78-43.55,7.11-65.49,6.33Z"/>
    <path d="M2499.53,1730.25c-21.24-3-41.6-9.95-63.08-4.03-8.3.98-16.28-3.82-24.49-4.82-8.81-3.09-19.07-1.75-27.27-5.98-9.62-12.31-38.01-3.64-35.43-24.09,2.1-10.16,13.67-7.25,18.88-1.25,7.41,3.99,14.97,4.04,23.09,3.62,10.93,4.53,22.51,7.24,34.44,7.28,13.95-.68,25.83,8.38,39.64,9.97,10.74-.97,21.45-2.19,32.22-2.72,23.73-1.67,46.74,6.24,70.55,4.18,26.52-6.87,53.79-7.55,81.02-5.85,27.96-2.7,56.01-4.33,83.99-.5,28.12-2.8,56.22-5.6,84.31-8.72,5.54-.51,7.55,6.8,5.35,10.95-.7,1.41-2.08,2.98-3.75,3.17-28.48,3.2-56.99,5.95-85.1,8.64-33.46,9.35-67.83,5.48-101.88,8.58-21.27,2.69-42.71.88-63.73-2.87-23.08-.3-45.73,6.89-68.74,4.44Z"/>
    <path d="M2809.93,1710.26c-20.63-2.3-41.33-2.53-62.05-3.25-14.47-7.81-29.79-6.17-45.45-8.27-13.42-5.18-7.9-30.8,7.24-23.42,12.89,4.59,24.58,9.11,38.21,4.09,16.09,1,32.38,3.85,48.59,1.76,21.89-3.51,42.89,6.28,65.07,3.7,25.31-6.11,50.63-12.4,76.69-14.17,22.58-1.33,45.35.48,67.05-6.99,42.41-17.67,88.85-15.84,133.06-26.47,17.22-3.29,34.45-6.55,51.66-9.84,6.22-1.19,10.26,5.23,10.87,10.59.63,5.59-1.85,13.02-8.04,14.3-50.09,9.67-99.87,20.73-150.02,29.43-19.18,2.04-38.71-.1-57.97,2.4-13.9,4.33-27.85,8.43-41.87,12.34-26.37,6.54-53.78,6.74-80.75,4.47-17.84.97-34.86,6.69-52.29,9.33Z"/>
    <path d="M3222.06,1703.21c-13.45-.17-26.7-2.07-39.8-5.02-30.46,2.96-60.96,4.07-90.27-6.33-9.13-.09-18.16.31-27.18,1.72-7.31-1.58-14.16-5.01-21.71-5.85-5.51-1.38-11.46-1.45-16.73-3.57-4.49-5.2-10.53-6.66-17-8.25-8.86-.84-11.46-15.85-2.52-18.53,6.15,0,9.85,8,16.5,8.94,10.18-3.52,19.9,4.46,30.22,5.1,14.19-1.73,25.52,7.39,39.12,9.9,30.31-3.41,59.77,1.68,89.69,5.76,22.31-5.43,45.59-6.33,68.22-6.63,31.5-4.81,62.98-8.33,94.94-8.4,21.46-2.62,42.9-5.22,64.4-7.42,3.21-.33,5.22,2.45,5.55,5.4,4.03,12.07-37.22,9.08-45.69,12.11-26.03,1.89-50.91,10-76.62,13.94-23.63,2.9-47.56,3.54-71.11,7.13Z"/>
    <path d="M3613.18,1716.66c-40.31-8.23-81.65,5.01-120.96-9.46-19.47-6.02-40.62,1.33-59.3-8.43-11.35-6.6-27.62-2.58-36.29-12.63-23.77,4.36-18.13-30.41,2.23-13.42,10.56-4.53,23.61,7.33,35.74,7.32,21.23.37,38.67,15.01,59.88,14.75,39.57-3.69,78.13,13.64,117.17,2.98,28.14-4.28,56.87-5.34,84.59-12.13,7.57-1.13,10.86,9.03,8.48,14.93-6.3,13.74-75.21,16.33-91.55,16.1Z"/>
    <path d="M3599.36,1742.42c-22.24-4.9-44.2-3.88-66.69-3.17-17.03-.4-31.78-9.34-48.67-10.61-12.62,1.78-26.66,3.81-38.78-.11-11.14-4.95-10.52-25.16,1.57-28.46,12.53-1.9,26.2,2.87,38.29,6.76,16.3,1.61,31.71-4.83,47.98-2.58,22.3,3.34,44.05,6.26,66.3.5,22.14.46,44.5,3.18,66.5,5.17,57.48-10.57,111.97-33.89,169.51-45.24,14.37-3.7,28.67-7.48,43.15-10.71,5.53-1.23,9.64,4.2,10.72,8.94,3.98,15.78-13.68,18.37-24.58,22.77-15.61,5.65-31.27,11.21-46.81,17.07-47.92,20.04-99.71,22.37-150.76,26.13-21.98,6.83-44.68,12.59-67.73,13.54Z"/>
    <path d="M3826.12,1723.99c-10.37-1.22-20.64-2.96-30.82-5.25-10.52.49-21.09,2.36-31.61,1.53-10.18-.5-20.05-3.24-29.86-5.81-5.89-.07-11.64.81-17.43,1.7-3.61-.42-7.1-1.9-10.7-2.5-4.64-1.26-9.32-1.5-14.08-1.48-2.36-.69-4.26-2.48-6.43-3.65-2.47-.25-4.87-.71-7.26.19-1.51.29-2.7-.49-3.96-1.17-3.93-2.15-3.45-10.34,1.23-11.27,2.24-.75,4.33.07,6.06,1.54,1.62.36,3.24.72,4.86,1.08,2.1-.44,4.19-1.41,6.34-1.56,2.43.23,4.67,1.48,7.03,2.11,2.7.19,5.39.37,8.09.56,4.62.33,9.56-.77,13.68,1.85,4.18,2.05,8.59,3.39,13.04,4.71,4.86-.46,9.7-.99,14.57-1.18,6.49-.54,12.91,0,19.37.6,8.97,2.07,17.99,3.69,27.17,4.59,8.5-1.33,16.98-2.72,25.58-3.19,9.09-1,18.25.03,27.37.08,18.46-1.75,36.82-4.95,55.41-4.32,9.28-.51,18.55-1.51,27.82-2.19,13.21-2.8,26.17-6.49,39.19-10.04,6-1.55,12.01-3.13,17.8-5.37,2.45-1.01,4.92-1.96,7.22-3.28,1.28-.69,2.66-.92,4.05-.37,5.14,2.27,5.46,11.07.75,13.97-21.41,12.3-46.57,12.5-70.34,15.95-17.07,3.06-33.89,7.97-51.18,9.41-10.16,1.36-20.37.56-30.59.44-7.47.68-14.94,2.06-22.41,2.34Z"/>
    <path d="M4008.43,1729.31c-11.84-.78-23.65-2.34-35.21-5.02-12.49-1.11-25.22,1.91-37.49-.54-13.9-3.31-26.48-9.77-40.43-13.21-6.31-4.17-11.31-10.12-18.36-13.36-19.23-.38-9.53-30.18,3.9-11.56,5.72,3.88,12.05,5.3,18.73,6.27,6.26,2.84,12.31,6.81,18.88,8.75,19.36.25,36.31,10.49,55.24,13,32.91-2.74,65.84-6.69,97.18-17.21,11.05-2.63,21.2-11.68,32.23-12.09,19.41,17.16-16.68,27.24-29.08,32.5-20.76,8.73-42.92,14.76-65.62,12.47Z"/>
    <path d="M4062.17,2106.43c-15.84-2.6,1.97-53.35,1.46-66.35,6.43-34.3,10.19-68.86,13.52-103.44,11-33.37,2.41-67.73,6.28-101.94,5.11-22.17.3-43.38-2.28-65.35.94-13.55,1.07-26.63-1.73-40.09,1.27-12.72,2.23-24.87-2.13-37.19-5.76-10.37,6.89-26.2,13.75-11.21,1.68,7.8,1.43,16.08.79,24.02,4.71,14.6,6.32,29.4,4.96,44.69,3.66,16.28,3.17,32.39-.54,48.52-1.13,19,3.15,37.71,3.19,56.67-1.4,18.65-5.68,36.89-6.63,55.59,4.11,45.28-6.99,90-12.47,134.77-4.23,11.5-3.99,64.61-18.18,61.3Z"/>
    <path d="M4074.19,2331.69c-8.85-50.57-8.85-102.41-10.72-153.62,1.18-30.88,7.16-61.33,6.69-92.31-8.82-34.28-1.63-68.86-2.09-103.63-1-13.79,1.77-26.96,5.66-40.12,2.75-13.58-2.16-27.05,1.48-40.33,1.17-5.02,5.32-10.36,11.09-9.25,12.77,4.49,9.46,23.56,4.9,33.18-1.29,31.89.59,63.75-1.96,95.79,3.26,21.76.08,43.45-4.65,64.77-1.62,26.28,2.51,52.25,2.56,78.47.39,28.13-3.94,56.13-5.64,84.2-1.31,25.3-.64,50.72,2.91,75.82,3.8,7.92-6.08,18.99-10.25,7Z"/>
    <path d="M4068.71,2372.61c-5.48-1.75-2.99-8.72-3.02-12.96.81-12.94.54-25.91.11-38.86-.24-6.58.11-13.18-1.02-19.7-.62-6.36-1.21-12.76-1.7-19.13,0-9.23.9-18.44.52-27.66.08-10.23-2.52-20.21-2.94-30.42-.41-10.55,1.93-21.03.48-31.55-.59-3.65-1.72-7.27-2.02-10.95.16-3.74.33-7.47.48-11.21-.74-2.13-.71-4.62.56-6.55-3.41-13.41,9.51-13.78,6.62-.21,1.37,1.84,1.44,4.3.84,6.42.3,3.54.64,7.08.96,10.61-.49,7.1-2.01,13.83-1.7,21.14,3.02,14.66,2.97,29.54,1.79,44.4.24,9.97,1.75,19.75,3.29,29.59,1.37,10.35,1.62,20.85,1.68,31.28,1.48,10.1,1.75,20.33,1.7,30.53,0,10.2-.71,20.43-1.85,30.56-.24,2.37-2.14,5.21-4.79,4.66Z"/>
    <path d="M4094.72,2503.5c.12-26.69-.41-53.38-.64-80.06-.09-8.77.56-17.56.97-26.31-.49-7.1-.97-14.2-1.47-21.3-4.79-17.15-5.44-34.9-6.73-52.57-3.72-12.4-4.12-25.34-3.54-38.2-1.01-11.03-5.37-20.47-7.62-31.21-1.62-10.35-.88-20.97-3.32-31.23-1.26-2.62-2.54-5.24-3.86-7.83-1.8-5.69-2.29-11.79-3.79-17.6-.82-1.84-1.91-3.55-2.67-5.42-.86-3.31-.86-6.81-1.91-10.1-1.45-1.14-2.53-2.59-3.85-3.83-3.39-2.28-3.64-7.8-.65-10.56,2.22.69,4.45,1.38,6.67,2.08-.13-.22-.26-.44-.39-.66,1.67,2.5,3.26,4.94,3.73,8.01,1.99,2.68,4.22,5.25,5.88,8.16,1.06,2.43,1.21,5.16,1.74,7.74,1.79,4.52,3.35,9.09,4.76,13.75,1.6,4.44.66,9.27.79,13.9,1.25,6.23,2.92,12.34,5.01,18.34,2.41,7.27,3.64,14.76,4.24,22.38.09,7.49.66,14.9,1.94,22.3,2.96,8.09,5.36,16.36,6.96,24.81.39,9.65,1.59,19.21,2.97,28.77.78,7.17,1.96,14.34,2.24,21.54-.37,16.94-.49,34.01,2.68,50.71,2.5,13.25,2.01,26.83,2.92,40.25.85,18.02,1.27,36.08,1.5,54.12-.22,12.35-14.11,12.99-14.56,0Z"/>
    <path d="M3776.67,2436.09c-30.21-7.77-60.91,3.64-90.78-6.28-8.54-3.23-16.88.43-25.56-.1-6.29.03-12.34-.57-17.83-3.88-8.41,1.21-16.29-2.07-23.32-6.44-8.95,1.93-19.78-3.22-13.3-13.3,3.99-5,10.53.67,14.79,2.67,7.94-1.17,16.02-.95,23.26,2.78,11.68-2.34,23.12,2.99,33.92,6.99,17.33.29,34.71-2.97,51.87.76,19.57,6.62,38.57-.05,58.25-.79,50.19,2.66,101.38-10.01,150.52-9.51,4.61,3.93,3.81,13.84-2.54,15.42-52.89,5.93-106.13,10.93-159.27,11.67Z"/>
    <path d="M3777.18,2468.56c-23.05.83-44.2-8.81-67.1-8.88-12.01.73-24.67,5.17-36.39,1.94-12.97-3.42-13-26.31,0-29.68,12.16-2.89,24.74,2.81,36.92,4.43,15.47,1.61,30.27-2.27,45.45-4.07,21.95-1.21,43.45,5.39,65.27,2.19,15.2-1.77,29.8-6.73,45.26-6.41,32.25-.63,64.44-.4,95.9-8.86,16.18-3.38,32.4-6.5,48.61-9.75,9.01-.93,10.12,15.06,1.93,17-31.97,8-64.45,13.82-96.07,23.18-18.19,5.97-35.72,14.33-54.84,16.78-28.16,3.3-56.68-2.9-84.92,2.12Z"/>
    <path d="M4097.25,2411.07c-22.77-5.55-46.26-7.58-69.04-13.08-23.26-7.81-47.26-6.19-71.31-4.55-23.09-2.03-45.06-8.21-68.16-3.36-8.51-.58-16.39-3.22-25.08-1.4-6.72-.36-13.05-4.98-19.37-.79-12.57,2.48-8.96-19.17,2.48-12.76,7.31,1.96,13.96-4.98,21.4-2.42,6.01,2.04,11.82.83,17.89-.08,8.38.7,16.52,2.92,24.56,5.33,27.78-1.66,55.39-3,82.7,3.98,35.67-.79,71.33.19,106.32,8.05,10.17,2.38,8.79,22.29-2.39,21.09Z"/>
  </g>
</svg>