<?xml version="1.0" encoding="UTF-8"?>
<svg id="Layer_1" xmlns="http://www.w3.org/2000/svg" xmlns:xlink="http://www.w3.org/1999/xlink" version="1.1" viewBox="0 0 4200 4200">
  <!-- Generator: Adobe Illustrator 29.2.1, SVG Export Plug-In . SVG Version: 2.1.0 Build 116)  -->
  <defs>
    <style>
      .st0 {
        fill: none;
      }

      .st1 {
        clip-path: url(#clippath);
      }
    </style>
    <clipPath id="clippath">
      <rect class="st0" x="460.78" y="1700.69" width="3117.23" height="619.93"/>
    </clipPath>
  </defs>
  <g class="st1">
    <path d="M1219.82,2076.6c12.31-18.02,16.89-40.01,21.89-61.11-.12.61-.23,1.16-.33,1.67,11.35-59.75,19.32-122.35-1.61-180.97-35.49,73.5-27.36,161.27-19.95,240.41ZM637.57,2306.86c-117.44-16.54-176.21-150.15-175.69-257.66-.84-94.19,43.5-186.01,108.3-252.88,85.27-95.38,217.19,5.16,263.64,91.66,46.08,103.14-10.14,211.26-32.69,312.91,55.41,6.19,96.61-55.67,117.83-100.03,4.34-31.63,4.79-69.32,27.92-93.66,23.63-9.96,22.69,34.59,19.3,48.89-8.74,38.66-34.98,77.99-19.32,118.08,15.6,22.41,47.73,12.84,66.74.08,37.3-24.58,53.74-67.93,64.49-109.43,7.48-31.61,26.13-10.75,25.56,10.86,5.13,26.33-16.38,91.64,16.86,99.28,35.54,4.94,61.98-28.26,79.35-54.96-16.48-97.9-19.72-201.48,7.65-297.72,5.32-14.1,23.27-74.23,42.26-47.07,50.5,95.41,33.87,253.41-9.08,349.43,53.92,44.6,92.76,14.8,119.31-39.3,26.73-25.17,45.5-91.7,91.72-75.57,15.25,15.05,13.39,43.78,3.32,61.33-7.95,8.5-19.31,13.33-28.68,20.19-16.27,11.2-34.74,20.72-37.85,41.98-1.16,11.33-13.65,33.96.79,39.05,40.17-4.75,80.91-70.81,104.41-102.27,12.57-20.12,16.41-44.04,27.25-64.74,22.24-17.68,21.06,36.98,20.63,49.31,3.94,34.79-13.93,92.09,13.54,117.32,22.63,10.46,55.77,31.58,74.16,5.75,25.88-60.4,55.87-119.81,72.58-183.63,5.4-48.95-.92-99.48,9.55-148.34,4.21-15.2,11.84-89.69,35.09-71.37,18.02,39.18,2.9,86.64-.67,128.03-14.66,68.67-20.47,137.43-18.55,207.58-.62,33.34-2.12,66.75-1.52,100.11,1.57,13.86,4.16,29.43-3.83,41.91-32.24,24.85-14.68-144.37-17.96-162.6-12.24,32.18-26.49,63.56-39.97,95.23-9.9,20.5-14.68,45.14-33.64,59.62-21.89,20.5-54.46.2-77.42-9.33-41.18-24.82-37.32-81.22-38.62-123.3-32.57,58.04-154.06,208.76-157.33,52.59-28.5,57.78-101.66,51.29-136.93,3.95-35.76,75.83-137.74,117.97-143.92,1.17-33.77,78.38-148.97,126.95-158.03,6.9-27.16,53.73-146.83,141.95-141.98,24.42,7.81-71.36,40.52-137.53,49.71-208.46,10.46-76.08-62.32-128.85-120.71-162.44-95.35-51.81-168.23,59.56-201.2,135.54-34.44,75.9-18.18,170.24,36.75,232.32,22.77,25.57,50.73,49.12,84.75,57.11,55.04,11.28,96.24-23.3,77.58-80.05-10.3-79.58-106.91-102.26-127.19-176.2-37.22-98.86,132.18-196.63,105.26-90.66-6.24,10.61-11.69-6.08-10.49-12.32-34.07-4.16-65.15,29.28-79.38,57.45-15.34,62.7,81.9,91.16,105.66,141.62,41.56,68,52.84,216.31-59.34,212.32Z"/>
    <path d="M1727.73,2103.5c-19.83-23.44,10.56-48.12,25.59-64.97,21.96-22.6,40.86-48.48,66.11-67.64,9.42-7.04,20-13.99,31.21-17.25-14.62,25.13-29.74,49.92-49.11,71.7-25.12,24.67-48.84,56-73.79,78.16Z"/>
    <path d="M1836.86,2218.1c-35.76-6.86-53.27-98.42-95.58-115.14-17.06,38.62-30.08-77.96,24.24-27.17,20.27,18.28,34.2,42.31,49.97,64.3,9.71,17.77,20.06,26.4,40.73,19.53,26.28-9.17,23.78,37.26,14.87,51.47-8.57,7.77-23.19,6.33-34.23,7.03Z"/>
    <path d="M1935.88,2150.8c34.16,6.05,69.24,14.75,103.97,8.53-30.55-34.89-49.87-77.73-61.36-122.36-9.67,40.4-23.72,81.78-53.33,112.09,3.64.44,7.24,1.08,10.72,1.74ZM2014.61,2237.09c17.92-4.08,34.11-15.57,42.44-32.15-51.86,19.71-105.5-13.47-156.6-4.44,28.72,28.87,74.04,42.79,114.16,36.6ZM1965.34,2281.97c-47.21-9.31-99.28-43.28-88.45-98.01-60.24,23.44-47.03-43.67-34.98-25.57,48.32,6.34,86.84-46.99,105.13-86.17,8.77-22.61,14.99-46.23,18.57-70.21,2.66-10.37.1-25.07,9.49-32.13,14.04-1.82,21.65,68.62,32.08,83.2,12.84,37.6,44.11,63.43,62.79,97.39,48.34-21.51,101.63-60.31,109.8-115.9,1.98-8.67,2.53-33.39,16.3-27.34,13.82,21.07,4.71,49.91,10.35,73.77,9.78,73.24,56.31,101.23,119.04,55.49,36.7-28.59,19.53-78.5,32.09-116.98,15.39-67.24,67.57-74.74,90.3-6.93,16.31,53.65,9.95,110.59,9.76,165.8,19.32,31.28,64.65-17.9,69.33,24.26,0-.05.01-.1.02-.15,0,0,.47-2.19.46-2.19-2.79,57.28-81.5,61.17-90.51,4.88-13.94-45.33,25.42-174.59-38.74-183.11-35.91,13.35-15.72,89.32-38.52,125.98-9.38,30.16-36.14,47.55-64.48,57.8-66.31,29.77-102.78-51.53-108.45-105.3-23.01,42.44-63.33,76.41-107.08,96.28,2.36,60.53-57.27,103.78-114.3,85.13Z"/>
    <path d="M2685.85,2270.51c-8.3-5.48-11.42-16.47-12.74-25.74-.23-1.6-.41-3.21-.54-4.83-21.84-11.74-33.98-51.16-14.56-68.9,12.95.32,15.63,22.76,7.64,30.43,3.02,3.13,6.42,5.98,10.41,7.75,4.95-30.24,46.81-47.51,52.49-8.31-.11,21.06,6.74,59.04-19.21,66.56-6.45,5.32-16.05,7.96-23.49,3.05Z"/>
    <path d="M2911.13,2262.82c-58.34-12.52-52.87-88.44-35.35-131.85,7.06-22.81,63.63-117.08,88.08-76.8,9.1,10.45.12,68.27-14.22,36.77-30.11,11.66-99.17,106.46-39.93,117.11,32.1,8.06,61.06-23.33,92.48-10.95,8.89,4.3,14.73,13.21,20.06,21.18-5.51,3.24-11.53,6.02-16.98,9.48-24.46,24.53-58.9,40.99-94.15,35.07Z"/>
    <path d="M3145.06,2197.51c32.32-8.69,84.56-42.54,69.48-80.88-13.55-21.75-43.28-38.27-67.91-25.12,3.59,32.13-8.33,56.97-11.72,7.65-11.52,9.83-18.65,23.97-25.45,37.03,1.42-10,3.26-19.81,5.58-29.67-34.52,43.24-48.01,106.61,30.02,91ZM3111.48,2235.64c-73.76-18.04-32.32-156.98,22.87-171.91,44.25-57.12,107.61,9.15,102.8,63.45,1.06,63.48-62.9,119.71-125.67,108.46Z"/>
    <path d="M3319.59,2210.39c-6.3-12.91-2.02-30.24,7.83-40.13,17.73-29.39,31.96-154.97,59.98-58.47,34.74,35.49,151.2-210.68,184.4,45.75,2.13,15.05,3.79,30.16,5.97,45.21-16.86-25.51-25.07-55.98-39.51-82.91-51.26-86.76-143.86,139.28-172.42,8.79-7.12,10.01-33.26,100.86-46.24,81.76Z"/>
  </g>
</svg>